HIERARCHY
ROOT Hips
{
  OFFSET 279.157 85.6768 304.565
  CHANNELS 6 Xposition Yposition Zposition Zrotation Xrotation Yrotation
  JOINT LeftUpLeg
  {
    OFFSET 8.64259 1.95398 -2.38835
    CHANNELS 3 Zrotation Xrotation Yrotation
    JOINT LeftLeg
    {
      OFFSET 43.7702 0 0
      CHANNELS 3 Zrotation Xrotation Yrotation
      JOINT LeftFoot
      {
        OFFSET 40.6238 0 0
        CHANNELS 3 Zrotation Xrotation Yrotation
        JOINT LeftToeBase
        {
          OFFSET 12.7242 0 0
          CHANNELS 3 Zrotation Xrotation Yrotation
          End Site
          {
            OFFSET 0 0 0
          }
        }
      }
    }
  }
  JOINT RightUpLeg
  {
    OFFSET -8.2249 1.95398 -2.59336
    CHANNELS 3 Zrotation Xrotation Yrotation
    JOINT RightLeg
    {
      OFFSET 43.5653 0 0
      CHANNELS 3 Zrotation Xrotation Yrotation
      JOINT RightFoot
      {
        OFFSET 40.6238 0 0
        CHANNELS 3 Zrotation Xrotation Yrotation
        JOINT RightToeBase
        {
          OFFSET 12.7242 0 0
          CHANNELS 3 Zrotation Xrotation Yrotation
          End Site
          {
            OFFSET 0 0 0
          }
        }
      }
    }
  }
  JOINT Spine
  {
    OFFSET 0.165834 0.87714 6.61349
    CHANNELS 3 Zrotation Xrotation Yrotation
    JOINT Spine1
    {
      OFFSET 7.38963 1.71661e-005 0
      CHANNELS 3 Zrotation Xrotation Yrotation
      JOINT Spine2
      {
        OFFSET 11.9445 1.14441e-005 0
        CHANNELS 3 Zrotation Xrotation Yrotation
        JOINT Spine3
        {
          OFFSET 14.7254 4.19617e-005 0
          CHANNELS 3 Zrotation Xrotation Yrotation
          JOINT Spine4
          {
            OFFSET 10.9679 0 0
            CHANNELS 3 Zrotation Xrotation Yrotation
            JOINT RightShoulder
            {
              OFFSET 2.46616 -1.6653 3.69651
              CHANNELS 3 Zrotation Xrotation Yrotation
              JOINT RightArm
              {
                OFFSET 13.0012 0 0
                CHANNELS 3 Zrotation Xrotation Yrotation
                JOINT RightForeArm
                {
                  OFFSET 28.7848 1.52588e-005 0
                  CHANNELS 3 Zrotation Xrotation Yrotation
                  JOINT RightHand
                  {
                    OFFSET 26.5688 1.52588e-005 0
                    CHANNELS 3 Zrotation Xrotation Yrotation
                    End Site
                    {
                      OFFSET 0 0 0
                    }
                  }
                }
              }
            }
            JOINT LeftShoulder
            {
              OFFSET 2.38034 -1.29275 -3.7523
              CHANNELS 3 Zrotation Xrotation Yrotation
              JOINT LeftArm
              {
                OFFSET 16.3182 6.10351e-005 0
                CHANNELS 3 Zrotation Xrotation Yrotation
                JOINT LeftForeArm
                {
                  OFFSET 27.0901 0 0
                  CHANNELS 3 Zrotation Xrotation Yrotation
                  JOINT LeftHand
                  {
                    OFFSET 24.5451 1.52588e-005 0
                    CHANNELS 3 Zrotation Xrotation Yrotation
                    End Site
                    {
                      OFFSET 0 0 0
                    }
                  }
                }
              }
            }
            JOINT Neck
            {
              OFFSET 5.0226 -0.0266342 0
              CHANNELS 3 Zrotation Xrotation Yrotation
              JOINT Head
              {
                OFFSET 6.69364 2.86102e-005 0
                CHANNELS 3 Zrotation Xrotation Yrotation
                End Site
                {
                  OFFSET 0 0 0
                }
              }
            }
          }
        }
      }
    }
  }
}
MOTION
Frames:	12
Frame Time:	0.0416667
-27.7689 88.5905 62.631 -85.7365 -43.5789 -94.8666 -171.188 45.8325 92.217 -107.59 8.60962 4.91653 69.7185 8.45668 9.56019 22.0815 -2.57755 -3.46659 174.703 6.25413 98.5433 -47.8263 -16.3258 1.64502 94.3577 -25.0129 -5.97375 14.919 2.58556 8.64295 1.64651 7.99787 -90.2603 10.8928 3.15789 -0.815611 -0.77468 3.11895 -0.953919 -23.3408 3.25688 0.172191 -3.32813 3.25687 0.172187 86.3595 -25.8061 -116.042 29.4572 13.0488 -41.5185 -35.2586 -5.57149 -100.355 -38.769 2.04704 -18.2247 -87.49 -52.3589 82.8886 -19.2062 8.45064 20.9389 66.4136 -14.0503 -95.5869 21.9906 -1.69173 -11.7766 35.7841 0.213031 9.02718 -15.0861 -3.47435 -3.87072 
-32.298 89.7738 68.7912 -84.6166 -42.2928 -96.1686 -171.009 49.2178 89.8736 -99.0422 5.56866 4.21797 73.3946 9.92806 8.21236 24.757 -1.29454 -3.19178 174.165 -0.650378 94.8022 -41.4735 -16.3146 0.280448 90.9175 -22.3544 -4.86646 20.7858 0.793121 9.69489 2.1684 7.93356 -89.8008 11.014 4.40901 -0.0257173 -0.649428 4.40362 -0.220132 -23.241 4.21253 1.30296 -3.22833 4.21253 1.30296 87.5991 -23.2668 -114.839 32.0702 16.6373 -45.0598 -37.4214 -6.19573 -104.353 -43.3359 1.30917 -15.431 -86.654 -51.4185 83.9687 -18.2328 8.4368 29.1241 65.9268 -15.9617 -95.7739 21.5269 -2.30309 -14.7971 36.5269 -2.7277 7.76496 -16.2174 -5.71303 -3.78108 
-37.6889 91.4835 75.2186 -84.5187 -41.6084 -98.402 -170.795 49.2765 87.7973 -87.1836 2.11957 2.82261 76.9889 11.166 4.32841 20.0452 -3.67817 -3.2429 173.584 -7.27183 91.0205 -34.8263 -19.5021 -1.66785 80.6069 -16.1983 -7.35932 27.8201 -1.06307 10.3972 2.7128 7.93237 -89.2627 10.9952 5.74214 0.919777 -0.663201 5.77702 0.665314 -23.2832 5.19959 2.6073 -3.27057 5.1996 2.60729 89.3849 -20.6769 -112.315 35.1194 18.408 -45.2649 -39.4428 -5.53251 -108.324 -46.5657 0.0782068 -12.0359 -86.4111 -47.7913 83.7643 -19.2112 7.56691 36.284 64.9845 -17.0637 -96.1053 21.4469 -2.28534 -14.6225 36.4818 -6.44044 5.73751 -16.6205 -8.29151 -3.6345 
-43.5376 93.0855 81.8813 -85.1599 -41.8079 -101.061 -171.436 46.8409 86.032 -74.1438 1.64594 1.00764 78.6618 11.1106 1.35971 20.2311 -4.30091 -0.997015 173.22 -13.7086 88.0478 -28.3541 -19.7325 -3.76143 68.4547 -7.2946 -6.5549 31.3893 -2.21531 12.8299 3.09936 7.99544 -88.7913 10.8396 6.72927 1.77557 -0.81467 6.80085 1.4764 -23.4534 5.88388 3.72154 -3.44079 5.88386 3.72153 90.6038 -18.6138 -110.596 37.3041 20.2139 -42.662 -36.9709 -5.21957 -111.107 -46.5103 0.849197 -13.7314 -86.6105 -45.0025 82.9818 -21.9157 7.93089 42.9514 67.0982 -21.8718 -95.0298 27.6575 -5.77455 -25.0503 37.3359 -9.51947 4.77083 -18.7714 -10.5236 -5.01793 
-49.479 94.1335 88.6424 -84.8919 -43.0003 -102.929 -172.728 44.3602 84.5304 -59.9429 6.21505 -0.966396 75.7125 9.86848 1.93433 24.4338 -2.45208 0.428294 172.933 -17.4351 86.1487 -26.037 -18.5898 -5.41616 60.9922 -1.10755 -2.87187 20.7219 0.980853 9.04612 3.32515 8.00955 -88.3078 10.7761 7.40165 2.6807 -0.875749 7.51239 2.35078 -23.5183 6.25359 4.78688 -3.50563 6.25359 4.78687 91.5653 -16.6092 -109.339 39.0737 21.8455 -39.0942 -35.2241 -5.31226 -113.444 -45.1055 1.3845 -15.1395 -86.7307 -40.9159 82.0277 -22.9017 6.37035 46.5795 61.6873 -20.6273 -97.4868 33.1555 -6.43149 -24.2227 39.0897 -12.4686 3.56769 -22.1414 -12.4967 -5.92441 
-55.1613 94.6786 95.3027 -84.3112 -44.2306 -103.702 -174.012 41.5803 83.6357 -45.6256 11.1054 -2.61791 72.741 8.19858 0.556995 29.1956 -0.631036 3.77376 173.21 -19.2292 86.0069 -29.1074 -16.8965 -6.54862 61.5605 -0.686148 -2.33174 13.043 3.96127 5.51767 3.4497 7.98547 -87.9591 10.7926 7.81029 3.33483 -0.858191 7.94942 2.98619 -23.4977 6.44737 5.53297 -3.48505 6.44738 5.53298 92.1457 -15.3467 -108.556 38.1562 20.5922 -35.7277 -36.3978 -3.76878 -113.353 -44.6249 1.22998 -15.0337 -87.2494 -38.5835 80.6696 -20.5086 4.20195 48.5145 63.887 -20.1032 -98.3256 24.673 -2.5943 -14.7542 39.1391 -14.5571 2.59565 -23.1276 -13.9063 -6.26152 
-60.4454 94.8493 101.844 -83.7056 -46.0969 -102.827 -175.182 39.1952 83.2466 -33.181 15.8203 -3.55056 69.0946 5.99521 0.0281021 31.8891 0.912033 3.76773 173.422 -20.2239 87.3332 -33.9848 -15.8502 -5.55945 65.3788 -3.13256 -3.556 15.8998 2.92864 6.17502 3.3989 7.92925 -87.933 10.9043 7.72253 3.38518 -0.747093 7.86392 3.04043 -23.3815 6.34862 5.55416 -3.36886 6.34862 5.55416 92.7623 -14.9094 -107.202 36.0393 15.0891 -33.2847 -40.1891 -1.14622 -110.253 -45.6055 0.259736 -12.7461 -88.2874 -41.4121 79.5423 -15.9024 4.60542 49.0791 62.2141 -21.5996 -100.03 23.9247 -2.70815 -15.5387 38.5498 -15.3986 2.73729 -22.2568 -14.796 -6.35508 
-65.4291 94.5836 108.265 -83.1648 -48.0073 -100.565 -175.164 37.4335 83.077 -25.4496 19.221 -4.40206 70.0405 6.96083 0.968051 31.0632 0.258615 4.60462 174.938 -19.4927 90.6684 -40.9487 -13.867 -3.81929 65.1325 -3.03952 -3.3383 16.4837 2.65097 6.59657 3.29827 7.77337 -88.1311 11.2364 7.4332 2.98879 -0.415852 7.55747 2.65725 -23.0509 6.19142 5.08944 -3.03828 6.19142 5.08944 92.2166 -15.9897 -108.032 34.2065 11.5076 -28.8504 -39.979 -1.97809 -106.88 -45.0897 0.858482 -14.162 -89.5281 -44.9999 78.3409 -13.5491 6.19001 47.0559 60.3148 -21.3189 -100.245 24.4384 -2.57361 -14.7897 36.1748 -15.893 2.35723 -19.9111 -15.3832 -5.20371 
-70.3512 94.1512 114.41 -85.0326 -49.6146 -100.134 -174.999 34.7056 82.9641 -23.5592 16.4369 -4.67396 74.1357 9.23498 -0.590945 26.2968 -2.88305 5.91651 174.943 -18.1399 92.8856 -50.7598 -13.3519 -1.91754 64.3107 -2.50526 -2.4943 17.1073 2.09387 8.20685 3.12335 7.7585 -88.3702 11.2865 6.97428 2.55326 -0.367542 7.07985 2.24254 -22.9972 5.88434 4.5359 -2.98459 5.88435 4.5359 90.7391 -18.4852 -110.343 32.627 7.62747 -23.0294 -38.0864 -3.31022 -101.219 -46.4852 0.785019 -13.0808 -90.0983 -47.9337 78.1248 -12.7564 8.08866 41.991 59.4533 -19.8438 -99.4323 26.2006 -2.66801 -14.4623 33.7589 -16.1344 0.907998 -18.7777 -15.229 -3.90243 
-75.4074 93.4414 120.5 -88.9446 -51.1297 -101.873 -175.084 30.1801 82.7601 -23.6842 12.6714 -4.30202 74.2157 8.99148 -1.23729 28.25 -1.76294 6.1792 173.336 -16.4133 93.57 -62.3858 -13.2753 -0.393379 63.9271 -2.18727 -1.68308 15.5467 2.37814 8.76503 2.81071 7.90326 -88.5868 11.0126 6.24998 2.21416 -0.644712 6.34132 1.936 -23.2574 5.29541 3.99363 -3.24472 5.29543 3.99363 89.1844 -21.3177 -112.421 32.5436 4.81389 -17.7492 -32.0218 -7.05847 -94.3475 -44.8576 2.14597 -15.7451 -91.1463 -50.4886 77.131 -12.4347 8.49996 35.4562 61.2828 -18.098 -98.1864 25.0216 -2.74425 -15.2281 30.7574 -15.5826 -0.986489 -17.1823 -14.1143 -3.20026 
-80.149 92.8521 126.269 -92.8917 -52.5005 -104.566 -175.913 28.9312 83.0797 -29.4071 13.958 -3.55435 67.5918 3.88091 -0.936903 22.8524 -3.7063 1.71167 170.021 -13.0466 92.3818 -74.4404 -11.0072 0.594874 63.5082 -2.57627 -3.23309 12.0601 2.83285 10.5055 2.37547 8.03369 -88.6892 10.7595 5.33471 2.11394 -0.901832 5.42254 1.87654 -23.4888 4.45277 3.62133 -3.4762 4.45278 3.62133 87.7818 -24.9772 -113.53 33.7896 2.56787 -13.3891 -22.6796 -8.93416 -84.8699 -37.8418 3.959 -21.5074 -92.4934 -52.9736 75.7511 -12.9111 10.5728 26.9443 60.7125 -15.6372 -96.7507 21.297 -2.3629 -15.183 26.8282 -14.8187 -3.93016 -14.6175 -12.6123 -1.81671 
-84.816 91.8664 131.788 -96.0831 -52.8039 -108.226 -175.776 27.3089 82.241 -35.4856 14.9437 -2.91766 62.1429 0.358017 0.439477 21.3582 -3.05745 -3.92116 166.226 -7.9172 88.0739 -86.8302 -5.26701 0.135708 63.954 -3.64143 -4.04689 12.1232 3.26119 8.93911 1.88545 8.2658 -88.6102 10.2946 4.39172 2.38285 -1.37071 4.49233 2.18701 -23.9293 3.47286 3.59292 -3.91662 3.47287 3.59292 86.9406 -27.9164 -113.776 35.7557 0.852073 -9.8034 -19.1184 -10.2167 -77.4702 -35.854 4.07891 -22.3387 -93.7316 -55.2907 74.5625 -11.8072 13.6119 14.7073 60.4939 -14.0432 -95.0239 21.3633 -2.18116 -14.3193 24.7425 -13.6534 -6.04187 -12.1134 -10.9659 -0.787911 
